<svg viewBox="0 0 65 50">
<g>
	<polygon points="61.519,0 53.605,17.476 50.3,17.476 58.213,0 54.909,0 46.997,17.476 43.692,17.476 51.604,0 48.301,0 
		40.388,17.476 31.227,17.476 39.141,0 35.836,0 26.56,20.484 52.264,20.484 38.899,50 42.203,50 64.822,0 	"/>
	<polygon points="28.986,50 38.263,29.516 12.558,29.516 25.924,0 22.62,0 0,50 3.304,50 11.216,32.524 14.521,32.524 6.608,50 
		9.913,50 17.825,32.524 21.129,32.524 13.216,50 16.521,50 24.435,32.524 33.596,32.524 25.684,50 	"/>
	<polygon points="47.598,23.496 21.893,23.496 32.532,0 29.229,0 17.226,26.504 42.93,26.504 32.292,50 35.596,50 	"/>
</g>
</svg>
