<?xml version="1.0" encoding="utf-8"?>
<!-- Generator: Adobe Illustrator 16.0.0, SVG Export Plug-In . SVG Version: 6.00 Build 0)  -->
<!DOCTYPE svg PUBLIC "-//W3C//DTD SVG 1.1//EN" "http://www.w3.org/Graphics/SVG/1.1/DTD/svg11.dtd">
<svg version="1.1" id="Layer_1" xmlns="http://www.w3.org/2000/svg" xmlns:xlink="http://www.w3.org/1999/xlink" x="0px" y="0px"
	 width="64.821px" height="50px" viewBox="0 0 64.821 50" enable-background="new 0 0 64.821 50" xml:space="preserve">
<g>
	<polygon fill="#F7F7F7" points="62.985,0 55.073,17.476 53.239,17.476 61.149,0 59.313,0 51.401,17.476 49.567,17.476 57.479,0 
		55.644,0 47.731,17.476 45.896,17.476 53.808,0 51.972,0 44.06,17.476 42.224,17.476 50.138,0 48.302,0 40.388,17.476 
		31.227,17.476 39.142,0 37.306,0 28.634,19.146 54.339,19.146 40.368,50 42.204,50 64.821,0 	"/>
	<polygon fill="#F7F7F7" points="27.519,50 36.188,30.854 10.485,30.854 24.456,0 22.62,0 0,50 1.835,50 9.749,32.524 
		11.584,32.524 3.671,50 5.507,50 13.42,32.524 15.255,32.524 7.343,50 9.179,50 17.091,32.524 18.927,32.524 11.013,50 12.849,50 
		20.763,32.524 22.597,32.524 14.685,50 16.521,50 24.433,32.524 33.597,32.524 25.683,50 	"/>
	<polygon fill="#F7F7F7" points="46.56,24.164 20.856,24.164 31.798,0 29.962,0 18.263,25.836 43.968,25.836 33.025,50 34.86,50 	
		"/>
	<polygon fill="#F7F7F7" points="51.745,20.82 26.042,20.82 35.47,0 33.634,0 23.449,22.491 49.153,22.491 36.696,50 38.532,50 	"/>
	<polygon fill="#F7F7F7" points="41.374,27.509 15.67,27.509 28.127,0 26.292,0 13.078,29.18 38.782,29.18 29.355,50 31.191,50 	"/>
</g>
</svg>
