<svg viewBox="0 0 1000 63.5">
	<g class="groundswell">
		<path fill="#010101" d="M15.296,63.689c4.636,0,8.252-1.481,10.847-4.543l1.391,3.617h5.005V30.779H16.408v7.787h5.749v10.198
			c0,4.265-1.947,6.303-5.933,6.303c-3.895,0-5.933-2.038-5.933-6.303V14.926c0-4.264,2.038-6.304,5.933-6.304
			c3.986,0,5.933,2.04,5.933,6.304v7.787h10.382v-7.787C32.539,4.635,27.534,0,16.224,0C5.006,0,0,4.635,0,14.926v33.838
			C0,58.684,5.099,63.689,15.296,63.689"/>
		<path fill="#010101" d="M56.179,35.786h6.026c3.059,0,4.913,1.111,5.469,3.429c0.186,0.742,0.278,1.855,0.278,3.339v14.647
			c0,2.224,0.371,4.078,1.021,5.562h10.29c-0.649-1.668-1.021-3.616-1.021-5.748V42.923c0-3.245-0.556-5.655-1.668-7.232
			c-1.02-1.481-2.874-2.594-5.655-3.243c2.503-0.834,4.357-2.134,5.47-3.615c1.297-1.854,1.947-5.563,1.947-11.032
			c0-6.489-1.02-10.94-2.966-13.257c-2.041-2.41-5.563-3.616-10.662-3.616h-18.82v61.835h10.291V35.786z M56.179,9.086h5.933
			c2.318,0,3.894,0.556,4.636,1.576c0.834,1.112,1.204,3.337,1.204,6.582v3.336c0,5.099-1.668,7.046-5.84,7.046h-5.933V9.086z"/>
		<path fill="#010101" d="M107.723,63.689c11.31,0,16.316-4.634,16.316-14.925V14.926c0-10.29-5.006-14.925-16.316-14.925
			c-11.217,0-16.224,4.635-16.224,14.925v33.838C91.499,59.055,96.506,63.689,107.723,63.689 M101.79,14.926
			c0-4.263,2.039-6.303,5.933-6.303c3.986,0,5.933,2.04,5.933,6.303v33.838c0,4.265-1.947,6.304-5.933,6.304
			c-3.894,0-5.933-2.039-5.933-6.304V14.926z"/>
		<path fill="#010101" d="M153.705,63.689c11.217,0,16.224-4.635,16.224-14.925V0.927h-10.291v47.837
			c0,4.265-2.039,6.303-5.933,6.303s-5.933-2.038-5.933-6.303V0.927h-10.383v47.837C137.389,59.054,142.396,63.689,153.705,63.689"
			/>
		<polygon fill="#010101" points="193.939,22.157 207.196,62.763 218.784,62.763 218.784,0.927 209.328,0.927 209.328,41.255 
			196.165,0.927 184.483,0.927 184.483,62.763 193.939,62.763 		"/>
		<path fill="#010101" d="M262.541,58.869c2.132-2.226,3.245-5.84,3.245-10.754V15.945c0-4.727-0.927-8.343-2.875-10.66
			c-2.409-2.874-6.303-4.358-11.68-4.358h-17.985v61.835h17.985C256.238,62.762,260.038,61.463,262.541,58.869 M243.537,54.603
			V9.086h5.839c3.987,0,6.027,2.224,6.027,6.581v31.798c0,4.729-2.04,7.138-6.027,7.138H243.537z"/>
		<path fill="#010101" d="M295.079,63.689c11.218,0,16.223-4.635,16.223-14.925v-5.191c0-4.265-0.556-7.231-1.574-8.808
			c-1.392-2.132-3.709-3.986-6.862-5.563l-10.197-5.099c-1.483-0.74-2.503-1.574-2.967-2.41c-0.462-0.927-0.648-2.225-0.648-3.985
			v-2.782c0-4.264,1.946-6.304,5.933-6.304c4.079,0,6.025,2.04,6.025,6.304v7.325h10.012v-7.325C311.024,4.635,306.019,0,294.895,0
			c-10.754,0-16.131,5.007-16.131,14.926v3.708c0,3.709,0.462,6.489,1.298,8.252c1.018,2.038,2.966,3.893,5.933,5.377l10.104,5.191
			c1.947,1.02,3.245,2.037,3.893,2.966c0.742,1.02,1.114,2.411,1.114,4.171v4.173c0,4.265-2.04,6.303-6.119,6.303
			c-4.173,0-6.211-2.038-6.211-6.303v-9.456h-10.012v9.456C278.764,59.054,283.769,63.689,295.079,63.689"/>
		<polygon fill="#010101" points="340.226,62.763 346.253,23.826 353.298,62.763 363.032,62.763 371.932,0.927 362.29,0.927 
			357.377,40.329 350.332,0.927 342.174,0.927 336.055,40.329 330.214,0.927 320.202,0.927 329.844,62.763 		"/>
		<polygon fill="#010101" points="407.901,54.233 393.254,54.233 393.254,35.135 407.901,35.135 407.901,26.607 393.254,26.607 
			393.254,9.456 407.901,9.456 407.901,0.927 382.964,0.927 382.964,62.763 407.901,62.763 		"/>
		<polygon fill="#010101" points="446.745,54.233 431.17,54.233 431.17,0.927 420.788,0.927 420.788,62.763 446.745,62.763 		"/>
		<polygon fill="#010101" points="480.954,54.233 465.379,54.233 465.379,0.927 454.997,0.927 454.997,62.763 480.954,62.763 		"/>
	</g>
	<g class="design">
		<path fill="#010101" d="M545.019,58.843c2.131-2.224,3.243-5.838,3.243-10.748V15.941c0-4.725-0.927-8.34-2.873-10.656
			c-2.409-2.873-6.301-4.356-11.675-4.356h-17.977v61.806h17.977C538.717,62.735,542.517,61.438,545.019,58.843 M526.023,54.582
			V9.084h5.838c3.984,0,6.023,2.225,6.023,6.579v31.783c0,4.727-2.039,7.136-6.023,7.136H526.023z"/>
		<polygon fill="#010101" points="585.934,54.211 571.293,54.211 571.293,35.121 585.934,35.121 585.934,26.597 571.293,26.597 
			571.293,9.455 585.934,9.455 585.934,0.929 561.008,0.929 561.008,62.735 585.934,62.735 		"/>
		<path fill="#010101" d="M614.698,63.663c11.212,0,16.216-4.634,16.216-14.92v-5.188c0-4.264-0.556-7.228-1.574-8.804
			c-1.391-2.13-3.707-3.983-6.858-5.56l-10.192-5.095c-1.482-0.742-2.502-1.575-2.965-2.41c-0.463-0.926-0.648-2.224-0.648-3.985
			v-2.78c0-4.261,1.945-6.301,5.931-6.301c4.076,0,6.021,2.04,6.021,6.301v7.321h10.009v-7.321c0-10.285-5.004-14.918-16.123-14.918
			c-10.749,0-16.123,5.004-16.123,14.918v3.708c0,3.706,0.463,6.486,1.297,8.246c1.019,2.039,2.965,3.892,5.93,5.375l10.101,5.189
			c1.945,1.019,3.243,2.039,3.892,2.965c0.742,1.019,1.113,2.409,1.113,4.169v4.17c0,4.263-2.04,6.301-6.116,6.301
			c-4.171,0-6.209-2.038-6.209-6.301v-9.452H598.39v9.452C598.39,59.029,603.393,63.663,614.698,63.663"/>
		<rect x="644.667" y="0.928" fill="#010101" width="10.285" height="61.806"/>
		<path fill="#010101" d="M685.225,63.663c4.634,0,8.247-1.482,10.842-4.54l1.39,3.612h5.003V30.767h-16.122v7.785h5.744v10.19
			c0,4.263-1.945,6.301-5.93,6.301c-3.892,0-5.931-2.038-5.931-6.301V14.921c0-4.261,2.039-6.301,5.931-6.301
			c3.984,0,5.93,2.04,5.93,6.301v7.785h10.378v-7.785c0-10.285-5.003-14.918-16.308-14.918c-11.213,0-16.216,4.633-16.216,14.918
			v33.822C669.936,58.659,675.033,63.663,685.225,63.663"/>
		<polygon fill="#010101" points="724.659,22.15 737.91,62.735 749.493,62.735 749.493,0.928 740.041,0.928 740.041,41.238 
			726.882,0.928 715.207,0.928 715.207,62.735 724.659,62.735 		"/>
	</g>
	<g class="group">
		<path fill="#010101" d="M798.371,63.663c4.632,0,8.246-1.482,10.842-4.54l1.391,3.612h5.002V30.767h-16.123v7.785h5.745v10.19
			c0,4.263-1.945,6.301-5.931,6.301c-3.892,0-5.93-2.038-5.93-6.301V14.921c0-4.261,2.038-6.301,5.93-6.301
			c3.985,0,5.931,2.04,5.931,6.301v7.785h10.378v-7.785c0-10.285-5.002-14.918-16.309-14.918c-11.212,0-16.217,4.633-16.217,14.918
			v33.822C783.08,58.659,788.178,63.663,798.371,63.663"/>
		<path fill="#010101" d="M839.829,35.772h6.023c3.058,0,4.912,1.11,5.467,3.428c0.187,0.741,0.278,1.853,0.278,3.335v14.641
			c0,2.225,0.37,4.077,1.019,5.56h10.286c-0.647-1.667-1.019-3.613-1.019-5.744V42.906c0-3.244-0.556-5.652-1.668-7.228
			c-1.02-1.483-2.872-2.596-5.652-3.243c2.502-0.835,4.354-2.132,5.466-3.615c1.299-1.852,1.947-5.559,1.947-11.026
			c0-6.485-1.019-10.935-2.966-13.251c-2.038-2.409-5.561-3.614-10.655-3.614h-18.811v61.806h10.284V35.772z M839.829,9.084h5.931
			c2.315,0,3.893,0.555,4.634,1.576c0.833,1.111,1.204,3.335,1.204,6.579v3.335c0,5.096-1.668,7.043-5.838,7.043h-5.931V9.084z"/>
		<path fill="#010101" d="M892.898,63.664c11.306,0,16.308-4.635,16.308-14.92V14.921c0-10.285-5.002-14.919-16.308-14.919
			c-11.212,0-16.216,4.634-16.216,14.919v33.822C876.682,59.029,881.686,63.664,892.898,63.664 M886.967,14.921
			c0-4.261,2.038-6.302,5.931-6.302c3.985,0,5.931,2.041,5.931,6.302v33.822c0,4.262-1.945,6.301-5.931,6.301
			c-3.893,0-5.931-2.039-5.931-6.301V14.921z"/>
		<path fill="#010101" d="M938.261,63.663c11.212,0,16.218-4.634,16.218-14.92V0.929h-10.287v47.814
			c0,4.263-2.038,6.301-5.931,6.301c-3.892,0-5.93-2.038-5.93-6.301V0.929h-10.378v47.814
			C921.954,59.029,926.958,63.663,938.261,63.663"/>
		<path fill="#010101" d="M978.25,38.272h8.432c9.082,0,13.067-3.89,13.438-12.971c0-1.576,0.091-4.263,0.091-8.062
			c0-5.282-0.556-8.99-1.762-11.028c-2.037-3.522-6.299-5.282-12.786-5.282h-17.698v61.806h10.285V38.272z M978.25,9.084h6.023
			c2.872,0,4.54,1.112,5.098,3.335c0.369,1.483,0.555,3.615,0.555,6.301l-0.093,4.17c-0.093,5.282-1.574,7.229-5.56,7.229h-6.023
			V9.084z"/>
	</g>
</svg>
